<svg xmlns="http://www.w3.org/2000/svg" width="57.668" height="36.712" viewBox="0 0 57.668 36.712">
  <g id="Amazon_Pay" data-name="Amazon Pay" transform="translate(-0.349 -6.313)">
    <path id="Path_45" data-name="Path 45" d="M20.314,21.222a5.039,5.039,0,0,1-4.241-1.964h-.182q.182,1.821.182,2.212v5.893H13.017V6.574h2.472q.1.4.429,1.925h.156a4.789,4.789,0,0,1,4.293-2.185,4.976,4.976,0,0,1,4.189,1.951,8.771,8.771,0,0,1,1.509,5.477,8.777,8.777,0,0,1-1.535,5.5A5.021,5.021,0,0,1,20.314,21.222Zm-.741-12.41a3.2,3.2,0,0,0-2.667,1.067,5.561,5.561,0,0,0-.833,3.408v.455a6.764,6.764,0,0,0,.833,3.812,3.1,3.1,0,0,0,2.719,1.171,2.76,2.76,0,0,0,2.446-1.3,6.718,6.718,0,0,0,.859-3.708,6.41,6.41,0,0,0-.859-3.655A2.821,2.821,0,0,0,19.573,8.811Zm19.045,12.15-.611-2h-.1a5.966,5.966,0,0,1-2.094,1.8,6.706,6.706,0,0,1-2.706.468,4.6,4.6,0,0,1-3.317-1.145A4.3,4.3,0,0,1,28.6,16.838a3.8,3.8,0,0,1,1.652-3.356,9.526,9.526,0,0,1,5.034-1.236l2.485-.078V11.4a2.866,2.866,0,0,0-.65-2.055,2.589,2.589,0,0,0-1.99-.689,6.9,6.9,0,0,0-2.12.325,15.992,15.992,0,0,0-1.951.768l-.989-2.186a10.451,10.451,0,0,1,2.563-.924,11.569,11.569,0,0,1,2.628-.325A6.2,6.2,0,0,1,39.4,7.51,4.674,4.674,0,0,1,40.8,11.27v9.692ZM34.065,18.88a3.779,3.779,0,0,0,2.667-.924,3.382,3.382,0,0,0,1.015-2.615V14.093l-1.847.078a6.306,6.306,0,0,0-3.148.729,2.182,2.182,0,0,0-.976,1.964,1.944,1.944,0,0,0,.572,1.5A2.48,2.48,0,0,0,34.065,18.88Zm8.82-12.306h3.33l2.927,8.157a15.479,15.479,0,0,1,.885,3.278h.1a13.425,13.425,0,0,1,.429-1.73q.312-1.028,3.3-9.7h3.3l-6.153,16.3q-1.678,4.488-5.594,4.488a8.8,8.8,0,0,1-1.977-.221v-2.42a7.16,7.16,0,0,0,1.574.156q2.212,0,3.109-2.563l.533-1.353Z" transform="translate(-4.366)" fill="#232f3e"/>
    <path id="Path_46" data-name="Path 46" d="M50.932,43.842C26.4,55.516,11.18,45.749,1.435,39.816c-.6-.374-1.628.087-.739,1.109C3.943,44.861,14.583,54.349,28.47,54.349s22.164-7.583,23.2-8.905.3-2.035-.737-1.6Zm6.889-3.8c-.659-.858-4.005-1.018-6.112-.759s-5.276,1.54-5,2.315c.141.29.43.16,1.879.03s5.524-.659,6.372.45-1.3,6.435-1.691,7.293.145,1.079.858.508a11.126,11.126,0,0,0,2.83-4.143c.848-2.1,1.365-5.04.865-5.693Z" transform="translate(0 -11.323)" fill="#f90"/>
    <path id="Path_47" data-name="Path 47" d="M50.932,43.842C26.4,55.516,11.18,45.749,1.435,39.816c-.6-.374-1.628.087-.739,1.109C3.943,44.861,14.583,54.349,28.47,54.349s22.164-7.583,23.2-8.905.3-2.035-.737-1.6Zm6.889-3.8c-.659-.858-4.005-1.018-6.112-.759s-5.276,1.54-5,2.315c.141.29.43.16,1.879.03s5.524-.659,6.372.45-1.3,6.435-1.691,7.293.145,1.079.858.508a11.126,11.126,0,0,0,2.83-4.143c.848-2.1,1.365-5.04.865-5.693Z" transform="translate(0 -11.323)" fill="#f90"/>
  </g>
</svg>
