<svg id="Facebook" xmlns="http://www.w3.org/2000/svg" width="36" height="36" viewBox="0 0 36 36">
  <path id="Path_48" data-name="Path 48" d="M0,18A18,18,0,0,1,18,0h0A18,18,0,0,1,36,18h0A18,18,0,0,1,18,36h0A18,18,0,0,1,0,18Z" fill="#fff"/>
  <path id="Path_49" data-name="Path 49" d="M49.78,39.609l.8-5.2H45.586V31.031a2.6,2.6,0,0,1,2.932-2.812h2.271v-4.43a27.683,27.683,0,0,0-4.029-.352c-4.113,0-6.8,2.493-6.8,7v3.966h-4.57v5.2h4.57V52.188a18.243,18.243,0,0,0,5.625,0V39.609Z" transform="translate(-24.773 -16.406)" fill="#3745a1"/>
</svg>
