<svg id="Instagram" xmlns="http://www.w3.org/2000/svg" width="36" height="36" viewBox="0 0 36 36">
  <path id="Path_50" data-name="Path 50" d="M0,18A18,18,0,0,1,18,0h0A18,18,0,0,1,36,18h0A18,18,0,0,1,18,36h0A18,18,0,0,1,0,18Z" fill="#fff"/>
  <path id="Path_51" data-name="Path 51" d="M34.806,25.947c2.886,0,3.225.013,4.365.064a5.9,5.9,0,0,1,2.007.373,3.352,3.352,0,0,1,1.244.806,3.3,3.3,0,0,1,.806,1.243,6.006,6.006,0,0,1,.373,2.007c.051,1.141.064,1.479.064,4.365s-.013,3.225-.064,4.365a5.9,5.9,0,0,1-.373,2.007,3.353,3.353,0,0,1-.806,1.243,3.3,3.3,0,0,1-1.244.806,6.006,6.006,0,0,1-2.007.373c-1.141.051-1.479.064-4.365.064s-3.225-.013-4.365-.064a5.9,5.9,0,0,1-2.007-.373,3.352,3.352,0,0,1-1.243-.806,3.3,3.3,0,0,1-.806-1.243,6.006,6.006,0,0,1-.373-2.007c-.051-1.141-.064-1.479-.064-4.365s.013-3.225.064-4.365a5.9,5.9,0,0,1,.373-2.007,3.353,3.353,0,0,1,.806-1.243,3.3,3.3,0,0,1,1.243-.806,6.006,6.006,0,0,1,2.007-.373C31.582,25.955,31.925,25.947,34.806,25.947Zm0-1.947c-2.933,0-3.3.013-4.455.064a7.917,7.917,0,0,0-2.62.5,5.265,5.265,0,0,0-1.912,1.248,5.358,5.358,0,0,0-1.248,1.912,7.922,7.922,0,0,0-.5,2.624C24.018,31.5,24,31.868,24,34.8s.013,3.3.064,4.455a7.969,7.969,0,0,0,.5,2.624,5.265,5.265,0,0,0,1.248,1.912,5.358,5.358,0,0,0,1.912,1.248,7.923,7.923,0,0,0,2.624.5c1.153.051,1.518.064,4.455.064s3.3-.013,4.455-.064a7.969,7.969,0,0,0,2.624-.5A5.266,5.266,0,0,0,43.8,43.793a5.359,5.359,0,0,0,1.248-1.912,7.923,7.923,0,0,0,.5-2.624c.051-1.153.064-1.518.064-4.455s-.013-3.3-.064-4.455a7.969,7.969,0,0,0-.5-2.624A5.265,5.265,0,0,0,43.8,25.81a5.358,5.358,0,0,0-1.912-1.248,7.923,7.923,0,0,0-2.624-.5C38.108,24.013,37.739,24,34.806,24Z" transform="translate(-16.803 -16.8)"/>
  <path id="Path_52" data-name="Path 52" d="M47.063,41.524a5.549,5.549,0,1,0,5.549,5.549A5.549,5.549,0,0,0,47.063,41.524Zm0,9.146a3.6,3.6,0,1,1,3.6-3.6A3.6,3.6,0,0,1,47.063,50.67Z" transform="translate(-29.06 -29.067)"/>
  <path id="Path_53" data-name="Path 53" d="M76.212,39.054a1.295,1.295,0,1,0-1.295-1.295A1.295,1.295,0,0,0,76.212,39.054Z" transform="translate(-52.442 -25.525)" fill="#fff"/>
</svg>
