<svg xmlns="http://www.w3.org/2000/svg" width="56.622" height="34.743" viewBox="0 0 56.622 34.743">
  <g id="Mastercard" transform="translate(0 -0.418)">
    <path id="Path_54" data-name="Path 54" d="M28.311,31.011a16.989,16.989,0,0,1-11.139,4.15A17.273,17.273,0,0,1,0,17.79,17.273,17.273,0,0,1,17.172.418a16.989,16.989,0,0,1,11.139,4.15A16.989,16.989,0,0,1,39.45.418,17.273,17.273,0,0,1,56.622,17.79,17.273,17.273,0,0,1,39.45,35.161,16.989,16.989,0,0,1,28.311,31.011Z" transform="translate(0 0)" fill="#ed0006" fill-rule="evenodd"/>
    <path id="Path_55" data-name="Path 55" d="M41,31.011A17.5,17.5,0,0,0,41,4.568,16.989,16.989,0,0,1,52.139.418,17.273,17.273,0,0,1,69.311,17.79,17.273,17.273,0,0,1,52.139,35.161,16.989,16.989,0,0,1,41,31.011Z" transform="translate(-12.689 0)" fill="#f9a000" fill-rule="evenodd"/>
    <path id="Path_56" data-name="Path 56" d="M38.3,32.871a17.5,17.5,0,0,0,0-26.444,17.5,17.5,0,0,0,0,26.444Z" transform="translate(-9.985 -1.86)" fill="#ff5e00" fill-rule="evenodd"/>
  </g>
</svg>
