<svg xmlns="http://www.w3.org/2000/svg" xmlns:xlink="http://www.w3.org/1999/xlink" width="63.809" height="41.431" viewBox="0 0 63.809 41.431">
  <defs>
    <clipPath id="clip-path">
      <rect id="Rectangle_33" data-name="Rectangle 33" width="25.5" height="25.5" transform="translate(0)" fill="#fff"/>
    </clipPath>
  </defs>
  <g id="Netbanking" transform="translate(-7.546 -0.242)">
    <path id="Path_57" data-name="Path 57" d="M16.821,19.64l22.9-14,22.9,14Z" transform="translate(-0.266 -1.622)" fill="#3877ff" stroke="#133e5d" stroke-width="5.071"/>
    <rect id="Rectangle_29" data-name="Rectangle 29" width="3.967" height="13.108" rx="1.983" transform="translate(22.167 21.775)" fill="#133e5d"/>
    <rect id="Rectangle_30" data-name="Rectangle 30" width="3.967" height="13.108" rx="1.983" transform="translate(37.467 21.775)" fill="#133e5d"/>
    <rect id="Rectangle_31" data-name="Rectangle 31" width="3.967" height="13.108" rx="1.983" transform="translate(52.767 21.775)" fill="#133e5d"/>
    <rect id="Rectangle_32" data-name="Rectangle 32" width="46.466" height="4.032" rx="2.016" transform="translate(15.934 37.641)" fill="#133e5d"/>
    <g id="Group_2" data-name="Group 2" transform="translate(42 0.242)" clip-path="url(#clip-path)">
      <path id="Path_58" data-name="Path 58" d="M66.849,24.529A10.625,10.625,0,1,0,56.224,13.9,10.625,10.625,0,0,0,66.849,24.529Z" transform="translate(-54.099 -1.154)" fill="#fff" stroke="#133e5d" stroke-linecap="round" stroke-linejoin="round" stroke-width="4.61"/>
      <path id="Path_59" data-name="Path 59" d="M69.585,3.279A16.256,16.256,0,0,1,73.835,13.9a16.256,16.256,0,0,1-4.25,10.625A16.256,16.256,0,0,1,65.335,13.9,16.256,16.256,0,0,1,69.585,3.279Z" transform="translate(-56.835 -1.154)" fill="#3877ff" stroke="#133e5d" stroke-linecap="round" stroke-linejoin="round" stroke-width="4.61"/>
      <path id="Path_60" data-name="Path 60" d="M56.224,18.464h21.25" transform="translate(-54.099 -5.714)" fill="none" stroke="#133e5d" stroke-linecap="round" stroke-linejoin="round" stroke-width="4.61"/>
    </g>
  </g>
</svg>
