<svg xmlns="http://www.w3.org/2000/svg" width="33.696" height="38.702" viewBox="0 0 33.696 38.702">
  <g id="UPI" transform="translate(-3.356 -4.372)">
    <path id="Path_61" data-name="Path 61" d="M31.859,6.579a.4.4,0,0,1,.732-.071l8.8,17.114a.4.4,0,0,1-.086.474L22.632,41.046a.37.37,0,0,1-.234.11.443.443,0,0,1-.408-.254.37.37,0,0,1,0-.259Z" transform="translate(-6.358 0)" fill="#fff" stroke="#133e5d" stroke-width="3.834"/>
    <path id="Path_62" data-name="Path 62" d="M15.17,6.579a.4.4,0,0,1,.732-.071l8.8,17.114a.4.4,0,0,1-.086.474L5.943,41.046a.37.37,0,0,1-.234.11A.444.444,0,0,1,5.3,40.9a.37.37,0,0,1,0-.259Z" fill="#3877ff" stroke="#133e5d" stroke-width="3.834"/>
  </g>
</svg>
