<svg xmlns="http://www.w3.org/2000/svg" width="76.965" height="24.563" viewBox="0 0 76.965 24.563">
  <path id="Visa" d="M20.008,24.79H13.348L8.353,5.735A3.075,3.075,0,0,0,6.872,3.718,21.682,21.682,0,0,0,.766,1.7V.968H11.5A2.8,2.8,0,0,1,14.273,3.35L16.865,17.1,23.522.968H30Zm13.692,0H27.41L32.59.968H38.88ZM47.019,7.567A2.438,2.438,0,0,1,49.61,5.551a11.721,11.721,0,0,1,6.105,1.1L56.827,1.52a15.924,15.924,0,0,0-5.735-1.1c-6.105,0-10.548,3.3-10.548,7.879,0,3.484,3.147,5.313,5.368,6.415,2.4,1.1,3.329,1.833,3.144,2.931,0,1.648-1.851,2.382-3.7,2.382a15.863,15.863,0,0,1-6.476-1.467L37.77,23.692a18.15,18.15,0,0,0,6.846,1.283c6.846.181,11.1-3.116,11.1-8.064C55.716,10.68,47.019,10.315,47.019,7.567ZM77.731,24.79,72.737.968H67.372A2.783,2.783,0,0,0,64.78,2.8L55.531,24.79h6.476L63.3,21.31h7.957L72,24.79ZM68.3,7.383l1.848,8.978h-5.18Z" transform="translate(-0.766 -0.418)" fill="#172b85" fill-rule="evenodd"/>
</svg>
