<svg id="YouTube" xmlns="http://www.w3.org/2000/svg" width="36" height="36" viewBox="0 0 36 36">
  <path id="Path_63" data-name="Path 63" d="M0,18A18,18,0,0,1,18,0h0A18,18,0,0,1,36,18h0A18,18,0,0,1,18,36h0A18,18,0,0,1,0,18Z" fill="#fff"/>
  <path id="Path_64" data-name="Path 64" d="M42.326,32.817a3.222,3.222,0,0,0-2.266-2.267C38.047,30,30,30,30,30s-8.05,0-10.062.53a3.288,3.288,0,0,0-2.267,2.288A33.95,33.95,0,0,0,17.139,39a33.824,33.824,0,0,0,.53,6.186,3.222,3.222,0,0,0,2.267,2.267c2.034.551,10.062.551,10.062.551s8.05,0,10.062-.53a3.222,3.222,0,0,0,2.266-2.267,33.936,33.936,0,0,0,.53-6.186A32.239,32.239,0,0,0,42.326,32.817Z" transform="translate(-11.997 -21)" fill="#ff1b1b"/>
  <path id="Path_65" data-name="Path 65" d="M51.456,54.869l6.694-3.855-6.694-3.855Z" transform="translate(-36.019 -33.011)" fill="#fff"/>
</svg>
